<?xml version="1.0" encoding="UTF-8" standalone="no"?>
<svg
   id="svg4"
   version="1.1"
   viewBox="0 0 646.00006 646"
   width="646.00006"
   height="646"
   xmlns="http://www.w3.org/2000/svg">
  <metadata
     id="metadata10">
    <rdfRDF>
      <ccWork
         rdfabout="">
        <dcformat>image/svg+xml</dcformat>
        <dctype
           rdfresource="http://purl.org/dc/dcmitype/StillImage" />
      </ccWork>
    </rdfRDF>
  </metadata>
  <defs
     id="defs8" />
  <path
     style="fill:#141414;stroke-width:2.41038;fill-opacity:1"
     id="path2-3"
     d="M 597.42604,550.3119 H 473.42154 V 523.268 c 36.3552,-22.0609 67.3575,-51.8916 90.724,-87.5211 29.9362,-45.6456 45.7616,-98.6066 45.7616,-153.156 0,-77.91046 -32.1766,-148.55819 -84.1283,-199.7283 C 473.82714,31.69249 402.10034,0 323.00004,0 164.79939,0 36.09533,126.76998 36.09533,282.59329 c 0,54.54941 15.82541,107.50801 45.76398,153.15601 23.36652,35.6295 54.37129,65.4578 90.72406,87.5187 v 27.0439 H 48.57399 C 21.74657,550.3119 0,571.7317 0,598.1559 0,611.3681 5.43664,623.3291 14.22671,631.9871 23.01678,640.6451 35.16028,646 48.57399,646 h 172.58337 c 26.8274,0 48.57398,-21.4198 48.57398,-47.8441 V 494.875 c 0,-18.4965 -10.82228,-35.3329 -27.79403,-43.2439 -66.02905,-30.7828 -108.69401,-97.133 -108.69401,-169.03781 0,-103.05849 85.12348,-186.9052 189.75674,-186.9052 104.6332,0 189.7591,83.84671 189.7591,186.9052 0,71.90241 -42.6649,138.25501 -108.694,169.03781 -16.9693,7.9134 -27.7916,24.7498 -27.7916,43.2439 v 103.2809 c 0,26.4243 21.7466,47.8441 48.574,47.8441 h 172.5785 c 26.8274,0 48.574,-21.4198 48.574,-47.8441 0,-26.4242 -21.7466,-47.844 -48.574,-47.844 z" />
</svg>
